<svg xmlns="http://www.w3.org/2000/svg" version="1.1" xmlns:xlink="http://www.w3.org/1999/xlink" width="233" height="297"><svg xmlns="http://www.w3.org/2000/svg" version="1.1" xmlns:xlink="http://www.w3.org/1999/xlink" width="233" height="297"><svg width="233" height="297" viewBox="0 0 233 297" fill="none" xmlns="http://www.w3.org/2000/svg">
<path d="M0 0H100L71.5 33.5L22 53L71.5 66.5L100 100H0L116 297L0 0Z" fill="#61DCA3"></path>
<path d="M233 0H133L161 35L211 53L166 63L133 100H233L117 297L233 0Z" fill="#61DCA3"></path>
<path d="M177.5 112C177.5 139.614 145.614 231.334 118 231.334C90.3858 231.334 57 139.614 57 112C57 84.3858 90.3858 200.834 118 200.834C145.614 200.834 177.5 84.3858 177.5 112Z" fill="#61DCA3"></path>
</svg></svg><style>@media (prefers-color-scheme: light) { :root { filter: none; } }
@media (prefers-color-scheme: dark) { :root { filter: none; } }
</style></svg>